<?xml version="1.0" encoding="utf-8"?>
<!-- Generator: Adobe Illustrator 18.1.1, SVG Export Plug-In . SVG Version: 6.00 Build 0)  -->
<svg version="1.1" id="Capa_1" xmlns="http://www.w3.org/2000/svg" xmlns:xlink="http://www.w3.org/1999/xlink" x="0px" y="0px"
	 viewBox="0 0 32 32" enable-background="new 0 0 32 32" xml:space="preserve" width="32px" height="32px">
<g>
	<path fill-rule="evenodd" clip-rule="evenodd" fill="#111212" d="M25.6,10.1c0.1-3.2-1.8-4.9-5.7-4.9c-4.7,0-8.6,2.1-11.6,6.3
		c-1.2,1.7-2,3.4-2.4,5.2v0.1c0.2,1.1-0.6,2.4-2.3,4l-0.1-0.1L3.3,21C1.1,24,0,26,0,27.3c0,1.3,0.5,2.4,1.5,3.4
		C2.5,31.6,3.7,32,5.1,32c1.8,0,3.3-0.7,4.5-2.2c0.3-0.3,1.2-1.8,2.8-4.4l0.1-0.1l-0.1-0.1c1-1.4,2-2.6,3.1-3.5
		C22.1,18.8,25.5,15,25.6,10.1z"/>
	<path fill-rule="evenodd" clip-rule="evenodd" fill="#FFFFFF" d="M11.1,24.9l-0.1,0.1l-1.5-0.6l-0.9,1.7l1.1,1l-0.3,0.5l-0.9-0.9
		l-1.3,1.8l0.4,1.1c-0.3,0.2-0.6,0.3-0.9,0.5c0.1-0.1,0-0.5-0.1-1.2c-0.7-0.1-1.8-0.6-3.2-1.6l-1.6,0.7c-0.1-0.2-0.1-0.4-0.1-0.7
		c0.3-0.2,0.8-0.4,1.6-0.6c0.1-0.2,0.5-0.7,1.1-1.7l-1.6-0.4L2.9,24c0.4,0.1,0.9,0.2,1.7,0.5c0.3-0.3,0.7-0.9,1.2-1.6l-1.2-1
		c0.2-0.2,0.6-0.6,1.3-1.5c1-1.4,1.5-2.5,1.5-3.3h2.4c0.8-1.7,2-3.4,3.6-5.2c-0.4-0.4-1.1-0.9-1.9-1.5c0.1-0.1,0.4-0.3,0.8-0.6
		l1.7,1.3c0.7-0.9,2-1.8,3.9-2.7V6.9c0.2,0,0.5-0.1,0.9-0.2l0.5,1.9c0.4,0.2,1.1,0.7,2.1,1.7c0.6-0.1,1.4-0.2,2.4-0.4
		c0-0.3,0,0-0.1,0.9l-2.1,0.2c-0.4,1-1.4,2.2-3.2,3.8c0.1,0.1,0.7,0.6,1.7,1.7L19.7,17l-1.9-1.7c-0.9,0.8-2.2,1.9-4,3.4
		c0.4,0.6,0.7,1.1,0.9,1.5C14.2,20.5,12.9,22.1,11.1,24.9z"/>
	<polygon fill-rule="evenodd" clip-rule="evenodd" fill="#111212" points="6.5,23.1 8.8,24.3 6.3,28.4 4,27 	"/>
	<polygon fill-rule="evenodd" clip-rule="evenodd" fill="#111212" points="25.5,2.8 23.4,4.9 26.4,7.8 28.4,5.8 	"/>
	<polygon fill-rule="evenodd" clip-rule="evenodd" fill="#111212" points="32,5.8 32,0 25.7,0 27.1,1.3 26.1,2.3 29.1,5.2 30.2,4.1 
			"/>
	<path fill-rule="evenodd" clip-rule="evenodd" fill="#111212" d="M14.1,12.5l2.8,2.3c-1.2,1.3-2.4,2.5-3.7,3.5
		c-0.4-0.2-1.1-0.6-2.3-1.1C11.8,15.8,12.9,14.2,14.1,12.5z"/>
	<path fill-rule="evenodd" clip-rule="evenodd" fill="#111212" d="M14.9,11.9l2.8,2.3l2.9-3.3c-0.7-1-1.4-1.5-2.1-1.7
		C18.3,9.3,17.2,10.1,14.9,11.9z"/>
</g>
</svg>
