<?xml version="1.0" encoding="utf-8"?>
<!-- Generator: Adobe Illustrator 18.1.1, SVG Export Plug-In . SVG Version: 6.00 Build 0)  -->
<svg version="1.1" id="Capa_1" xmlns="http://www.w3.org/2000/svg" xmlns:xlink="http://www.w3.org/1999/xlink" x="0px" y="0px"
	 viewBox="0 0 32 32" enable-background="new 0 0 32 32" xml:space="preserve" width="32px" height="32px">
<g>
	<path fill-rule="evenodd" clip-rule="evenodd" fill="#111212" d="M32,30.8l-5.1-10.5c0.7-1.3,1.2-2.8,1.3-4.4
		c0.2-2.1-0.3-4.1-1.7-6c-1.3-1.8-3.1-2.8-5.2-2.8c-0.2,0-0.4,0-0.9,0.1L17-0.1c-1,1.5-2.1,3.2-3.4,5.1c-0.6-0.4-1.3-1-2.1-1.8
		L9.9,7.4c-2.2,0-4,0.9-5.3,2.6c-1.3,1.6-1.9,3.6-1.9,5.9c0,2.1,0.5,3.8,1.4,5.2l-0.4,1.1c-1.4-1.6-2-2.9-1.8-3.8l-0.4-0.2
		c-0.2,0.6-0.3,1.1-0.2,1.5c0.2,0.8,1,1.8,2.3,2.9L3.3,23c-0.4-0.3-0.9-0.8-1.5-1.6c-0.1,0.2-0.1,0.3-0.1,0.6
		c0.4,0.6,0.9,1.1,1.4,1.4L0,30.9l13.8-0.1l0.3,1.1l0.7-0.8c0.1-0.1,0.1-0.2,0.2-0.3H32z"/>
	<path fill-rule="evenodd" clip-rule="evenodd" fill="#FFFFFF" d="M4.5,16c0-4.2,1.6-6.5,4.9-6.8c3.2-0.3,5.6,1.2,7.2,4.5l0.6-0.2
		c-0.4-1-0.9-1.9-1.4-2.8c1.1-1.3,3-2,5.5-1.9c1.6,0.1,2.8,0.8,3.9,2.1c1.1,1.3,1.6,2.8,1.4,4.3c-0.3,2.7-0.9,4.6-1.9,6
		c-0.7,1-2.3,2.3-4.8,4l-2.2,1.6c-1.3,0.9-2.3,1.8-3.1,2.9l-1.2-3.9c-0.7-1.3-2.5-2.8-5.4-4.3C5.7,20.3,4.5,18.4,4.5,16z"/>
	<path fill-rule="evenodd" clip-rule="evenodd" fill="#111212" d="M23.6,6c2.2,0.7,4.1,2.7,5.8,5.8c0.1-0.1,0.4-0.3,0.9-0.6
		c-0.4-2.4-2.5-4.2-6.2-5.4C23.9,5.8,23.8,5.9,23.6,6z"/>
	<path fill-rule="evenodd" clip-rule="evenodd" fill="#111212" d="M24.6,5.6h0.1L25,5.4c-0.1-0.1-0.4-0.2-0.9-0.4
		c-0.6-0.1-1,0-1.3,0.1v0.2C23.3,5.3,23.9,5.4,24.6,5.6z"/>
</g>
</svg>
