<?xml version="1.0" encoding="utf-8"?>
<!-- Generator: Adobe Illustrator 18.1.1, SVG Export Plug-In . SVG Version: 6.00 Build 0)  -->
<svg version="1.1" id="Capa_1" xmlns="http://www.w3.org/2000/svg" xmlns:xlink="http://www.w3.org/1999/xlink" x="0px" y="0px"
	 viewBox="0 0 32 32" enable-background="new 0 0 32 32" xml:space="preserve" width="32px" height="32px">
<circle fill-rule="evenodd" clip-rule="evenodd" fill="#111212" cx="13" cy="18.9" r="13"/>
<path fill-rule="evenodd" clip-rule="evenodd" fill="#FFFFFF" d="M3.5,18.9c0-5.2,4.3-9.5,9.5-9.5c5.2,0,9.5,4.3,9.5,9.5
	c0,5.2-4.3,9.5-9.5,9.5C7.8,28.4,3.5,24.2,3.5,18.9z"/>
<g>
	<g>
		<rect x="11.3" y="0" fill="#111212" width="3.4" height="6.7"/>
	</g>
</g>
<g>
	<g>
		
			<rect x="21.5" y="5.5" transform="matrix(0.7071 0.7071 -0.7071 0.7071 13.0831 -13.7653)" fill="#111212" width="3.4" height="6.7"/>
	</g>
</g>
<g>
	<g>
		
			<rect x="25" y="-0.4" transform="matrix(0.7071 -0.7071 0.7071 0.7071 4.0656 20.4695)" fill="#111212" width="3.4" height="11.5"/>
	</g>
</g>
<g>
	<path fill-rule="evenodd" clip-rule="evenodd" fill="none" stroke="#111212" stroke-width="1.2817" stroke-miterlimit="3.8637" d="
		M9.7,22.1c0.9,1,2.1,1.5,3.5,1.5c2.7,0,4.8-2.2,4.8-4.9c0-2.7-2.2-4.9-4.8-4.9l-0.1,0"/>
	<polygon fill-rule="evenodd" clip-rule="evenodd" fill="#111212" points="11.9,20 8,20 8,23.9 	"/>
</g>
</svg>
