<?xml version="1.0" encoding="utf-8"?>
<!-- Generator: Adobe Illustrator 18.1.1, SVG Export Plug-In . SVG Version: 6.00 Build 0)  -->
<svg version="1.1" id="Capa_1" xmlns="http://www.w3.org/2000/svg" xmlns:xlink="http://www.w3.org/1999/xlink" x="0px" y="0px"
	 viewBox="0 0 146 32" enable-background="new 0 0 146 32" xml:space="preserve">
<g>
	<polygon fill-rule="evenodd" clip-rule="evenodd" fill="#111212" points="1.4,0 2.4,0 18.9,12.4 36.1,0 37.1,0 38,32 26.7,32 
		26,20.4 18.8,25.6 11,20.1 10.5,32 0,32 	"/>
	<rect x="50.2" y="0.5" fill-rule="evenodd" clip-rule="evenodd" fill="#111212" width="11.8" height="31.5"/>
	<path fill-rule="evenodd" clip-rule="evenodd" fill="#111212" d="M86.6,24h3.3c3.9,0,5.9-2.6,5.9-7.6c0-5-2-7.7-5.9-8.1h-3.3V24z
		 M74.8,0.5h16.9c5.1,0,9.1,1.4,12.1,4.3c3.1,2.8,4.6,6.6,4.6,11.5c0,10.5-5.7,15.8-17.2,15.8H74.8V0.5z"/>
	<polygon fill-rule="evenodd" clip-rule="evenodd" fill="#111212" points="119.4,0.5 146,0.5 146,8 131.2,8 131.2,12.4 145.7,12.4 
		145.7,20.2 131.2,20.2 131.2,24.7 146,24.7 146,32 119.4,32 	"/>
</g>
</svg>
