<?xml version="1.0" encoding="utf-8"?>
<!-- Generator: Adobe Illustrator 18.1.1, SVG Export Plug-In . SVG Version: 6.00 Build 0)  -->
<svg version="1.1" id="Capa_1" xmlns="http://www.w3.org/2000/svg" xmlns:xlink="http://www.w3.org/1999/xlink" x="0px" y="0px"
	 viewBox="0 0 32 32" enable-background="new 0 0 32 32" xml:space="preserve" width="32px" height="32px">
<g>
	<path fill-rule="evenodd" clip-rule="evenodd" fill="#111212" d="M32,16.3c0,0-3.1,0-4.1-0.1c-1-0.1-1.7-0.1-2.2-0.1
		c0.8-2.4,1.9-6.9,3.5-13.4l-0.2-0.1c-0.2-0.1-0.3-0.2-0.3-0.2C26.4,3.5,24.2,5,22,6.7V0h-2.3v3.5L16.2,0h-2v7.4h2.7V4.7l3.2,2.7
		h0.9c-1.8,1.5-5,4.5-9.4,8.9H0v15.6h32V16.3z"/>
	<path fill-rule="evenodd" clip-rule="evenodd" fill="#FFFFFF" d="M20.3,26c-0.8,0.8-2,2.2-3.7,3.9c-2.4,0.3-4.6,0.5-6.6,0.5
		c-1.4,0-2.7-0.1-3.9-0.2c0.8-2.6,1.8-5.6,3-9c4.6-4.6,7.5-7.6,8.7-8.9c1.5,0.6,3.9,1.4,6.9,2.3C22.9,18.9,21.4,22.7,20.3,26z"/>
	<path fill-rule="evenodd" clip-rule="evenodd" fill="#111212" d="M15.7,20.3c-1.2-0.2-2.4,0.3-3.5,1.4c-0.4,1.6-0.6,2.7-0.6,3.2
		c0.5,0.7,1.4,1.1,2.8,1.2c1.2,0,2.4-1.1,3.5-3.4c-0.2-0.8-0.4-1.2-0.5-1.3C17.1,21,16.5,20.6,15.7,20.3z"/>
	<path fill-rule="evenodd" clip-rule="evenodd" fill="#FFFFFF" d="M16.8,22.8c-0.7,0.5-1.4,0.7-2.2,0.6c-1.2-0.2-1.5-0.7-1-1.4
		c0.5-0.8,1.1-1.1,2-0.9c0.3,0.1,0.7,0.3,1,0.8C16.9,22.2,17,22.5,16.8,22.8z"/>
	<path fill-rule="evenodd" clip-rule="evenodd" fill="#FFFFFF" d="M14.1,25.1c-0.9-0.2-1.3-0.5-1.3-0.7l0.3-0.7
		c0.2,0.3,0.5,0.5,1.2,0.6c0.5,0.1,1.3-0.1,2.3-0.6C15.9,24.8,15.1,25.3,14.1,25.1z"/>
</g>
</svg>
