<?xml version="1.0" encoding="utf-8"?>
<!-- Generator: Adobe Illustrator 18.1.1, SVG Export Plug-In . SVG Version: 6.00 Build 0)  -->
<svg version="1.1" id="Capa_1" xmlns="http://www.w3.org/2000/svg" xmlns:xlink="http://www.w3.org/1999/xlink" x="0px" y="0px"
	 viewBox="0 0 32 32" enable-background="new 0 0 32 32" xml:space="preserve" width="32px" height="32px">
<g>
	
		<line fill-rule="evenodd" clip-rule="evenodd" fill="none" stroke="#111212" stroke-width="1.9294" stroke-miterlimit="3.8637" x1="12" y1="16.9" x2="24" y2="16.9"/>
	<polygon fill-rule="evenodd" clip-rule="evenodd" fill="#111212" points="23.5,12.6 32,16.9 23.5,21.2 	"/>
</g>
<path fill="#111212" d="M21,23.7c-1.9,3.8-5.2,6.4-8.9,6.4C6.2,30.1,1.5,23.8,1.5,16S6.2,1.9,12.1,1.9c4.4,0,8.2,3.6,9.8,8.6
	c0.5,0,1,0,1.6,0C21.8,4.4,17.3,0,12.1,0C5.4,0,0,7.2,0,16s5.4,16,12.1,16c4.6,0,8.6-3.4,10.6-8.4C22.1,23.6,21.5,23.7,21,23.7z"/>
</svg>
